<svg width="170" height="57" viewBox="0 0 170 57" fill="none" xmlns="http://www.w3.org/2000/svg">
<path id="Vector" d="M85.1044 150.636C73.3793 150.636 62.3605 148.658 52.048 144.702C41.7356 140.746 32.7652 135.382 25.1368 128.61C17.5084 121.838 11.4706 113.869 7.02357 104.702C2.5765 95.5353 0.350144 85.7461 0.344493 75.3344C0.338842 64.9227 2.5652 55.1335 7.02357 45.9667C11.4819 36.8 17.5197 28.8306 25.1368 22.0585C32.7539 15.2863 41.7243 9.92234 52.048 5.96649C62.3718 2.01064 73.3906 0.0327148 85.1044 0.0327148C96.8182 0.0327148 107.837 2.01064 118.161 5.96649C128.485 9.92234 137.455 15.2863 145.072 22.0585C152.689 28.8306 158.73 36.8 163.194 45.9667C167.658 55.1335 169.881 64.9227 169.864 75.3344C169.847 85.7461 167.621 95.5353 163.185 104.702C158.749 113.869 152.712 121.838 145.072 128.61C137.432 135.382 128.462 140.749 118.161 144.71C107.86 148.671 96.8408 150.646 85.1044 150.636ZM85.1044 135.576C104.034 135.576 120.068 129.74 133.206 118.068C146.343 106.396 152.912 92.1518 152.912 75.3344C152.912 58.517 146.343 44.2724 133.206 32.6007C120.068 20.9289 104.034 15.0931 85.1044 15.0931C66.1747 15.0931 50.1409 20.9289 37.0032 32.6007C23.8654 44.2724 17.2965 58.517 17.2965 75.3344C17.2965 92.1518 23.8654 106.396 37.0032 118.068C50.1409 129.74 66.1747 135.576 85.1044 135.576Z" fill="#586F7F"/>
</svg>
